<?xml version="1.0" encoding="utf-8"?>
<!-- Generator: Adobe Illustrator 25.0.1, SVG Export Plug-In . SVG Version: 6.00 Build 0)  -->
<svg version="1.1" id="Laag_1" xmlns="http://www.w3.org/2000/svg" xmlns:xlink="http://www.w3.org/1999/xlink" x="0px" y="0px"
	 viewBox="0 0 264 220" style="enable-background:new 0 0 264 220;" xml:space="preserve">
<style type="text/css">
	.st0{fill:#6D6E70;}
	.st1{fill:#33B459;}
</style>
<g>
	<g>
		<path class="st0" d="M67.6,107.5c-0.6,0-1.1-0.3-1.4-0.7c-0.6-0.8-0.4-1.9,0.4-2.5l59.3-43.8c3.5-2.6,8.9-2.6,12.4,0l59.3,43.8
			c0.8,0.6,1,1.7,0.4,2.5s-1.7,1-2.5,0.4l-59.3-43.8c-2.2-1.6-5.9-1.6-8.1,0l-59.3,43.8C68.3,107.4,68,107.5,67.6,107.5z"/>
		<path class="st0" d="M180.7,161.4H83.3c-4.5,0-8.2-3.7-8.2-8.2v-51.8c0-1,0.8-1.8,1.8-1.8s1.8,0.8,1.8,1.8v51.8
			c0,2.5,2,4.6,4.6,4.6h97.3c2.5,0,4.6-2.1,4.6-4.6v-51.8c0-1,0.8-1.8,1.8-1.8s1.8,0.8,1.8,1.8v51.8
			C188.8,157.8,185.2,161.4,180.7,161.4z"/>
		<rect x="126.9" y="89.3" class="st1" width="10.1" height="68.6"/>
	</g>
</g>
</svg>
