<?xml version="1.0" encoding="utf-8"?>
<!-- Generator: Adobe Illustrator 25.0.1, SVG Export Plug-In . SVG Version: 6.00 Build 0)  -->
<svg version="1.1" id="Laag_1" xmlns="http://www.w3.org/2000/svg" xmlns:xlink="http://www.w3.org/1999/xlink" x="0px" y="0px"
	 viewBox="0 0 264 220" style="enable-background:new 0 0 264 220;" xml:space="preserve">
<style type="text/css">
	.st0{fill:#6D6E70;}
	.st1{fill:#33B459;}
</style>
<g>
	<path class="st0" d="M66.9,107.5c-0.6,0-1.1-0.3-1.5-0.7c-0.6-0.8-0.4-1.9,0.4-2.5l60-44.3c3.5-2.6,9-2.6,12.5,0l60,44.3
		c0.8,0.6,1,1.7,0.4,2.5s-1.7,1-2.5,0.4l-60-44.3c-2.2-1.6-6-1.6-8.2,0l-60,44.3C67.6,107.4,67.2,107.5,66.9,107.5z"/>
	<path class="st0" d="M181.2,162H82.8c-4.6,0-8.3-3.7-8.3-8.3v-52.4c0-1,0.8-1.8,1.8-1.8s1.8,0.8,1.8,1.8v52.4
		c0,2.6,2.1,4.6,4.6,4.6h98.5c2.5,0,4.6-2.1,4.6-4.6v-52.4c0-1,0.8-1.8,1.8-1.8s1.8,0.8,1.8,1.8v52.4
		C189.5,158.3,185.8,162,181.2,162z"/>
	<rect x="82.9" y="101" class="st1" width="10.2" height="57.3"/>
	<rect x="170.9" y="101.1" class="st1" width="10.2" height="57.2"/>
</g>
</svg>
