<?xml version="1.0" encoding="utf-8"?>
<!-- Generator: Adobe Illustrator 25.0.1, SVG Export Plug-In . SVG Version: 6.00 Build 0)  -->
<svg version="1.1" id="Laag_1" xmlns="http://www.w3.org/2000/svg" xmlns:xlink="http://www.w3.org/1999/xlink" x="0px" y="0px"
	 viewBox="0 0 264 220" style="enable-background:new 0 0 264 220;" xml:space="preserve">
<style type="text/css">
	.st0{fill:#33B459;}
	.st1{fill:#6D6E70;}
</style>
<g>
	<rect x="77.3" y="96.3" class="st0" width="109.1" height="10.2"/>
	<path class="st1" d="M67.1,107.5c-0.6,0-1.1-0.3-1.5-0.7c-0.6-0.8-0.4-1.9,0.4-2.5l59.7-44.1c3.5-2.6,9-2.6,12.5,0l59.7,44.1
		c0.8,0.6,1,1.7,0.4,2.5s-1.7,1-2.5,0.4L136.1,63c-2.2-1.6-6-1.6-8.2,0l-59.7,44.1C67.9,107.4,67.5,107.5,67.1,107.5z"/>
	<path class="st1" d="M181,161.8H82.9c-4.5,0-8.2-3.7-8.2-8.2v-52.2c0-1,0.8-1.8,1.8-1.8s1.8,0.8,1.8,1.8v52.2
		c0,2.5,2.1,4.6,4.6,4.6H181c2.5,0,4.6-2.1,4.6-4.6v-52.2c0-1,0.8-1.8,1.8-1.8s1.8,0.8,1.8,1.8v52.2
		C189.3,158.1,185.6,161.8,181,161.8z"/>
</g>
</svg>
